<svg width="128" height="36" viewBox="0 0 292 56" fill="none" xmlns="http://www.w3.org/2000/svg">
<path d="M0.52 55C0.306667 55 0.2 54.8933 0.2 54.68C0.2 45.7733 0.2 36.8933 0.2 28.04C0.2 19.1867 0.2 10.3333 0.2 1.48C0.2 1.26666 0.306667 1.16 0.52 1.16C0.68 1.16 1.24 1.16 2.2 1.16C3.16 1.16 4.25333 1.16 5.48 1.16C6.70667 1.16 7.8 1.16 8.76 1.16C9.72 1.16 10.28 1.16 10.44 1.16C10.6533 1.16 10.76 1.26666 10.76 1.48C10.76 3.50666 10.76 5.32 10.76 6.92C10.76 8.52 10.76 10.04 10.76 11.48C10.76 12.92 10.76 14.44 10.76 16.04C10.76 17.64 10.76 19.4533 10.76 21.48C10.76 21.64 10.7867 21.8 10.84 21.96C10.8933 22.0667 10.9733 22.12 11.08 22.12H12.68C12.84 22.12 13 22.04 13.16 21.88C13.32 21.6667 13.4533 21.4533 13.56 21.24C14.6267 19.2133 15.56 17.4533 16.36 15.96C17.16 14.4667 17.9333 13.0533 18.68 11.72C19.4267 10.3867 20.2 8.97333 21 7.48C21.8 5.93333 22.7333 4.14666 23.8 2.12C24.0133 1.74666 24.2267 1.50666 24.44 1.4C24.7067 1.24 24.9733 1.16 25.24 1.16C25.4 1.16 25.9333 1.16 26.84 1.16C27.8 1.16 28.8667 1.16 30.04 1.16C31.2133 1.16 32.28 1.16 33.24 1.16C34.2 1.16 34.76 1.16 34.92 1.16C35.4533 1.16 35.6667 1.34666 35.56 1.72C35.5067 2.09333 35.24 2.78666 34.76 3.8C33.2133 6.30666 31.7733 8.70666 30.44 11C29.16 13.2933 27.9067 15.64 26.68 18.04C25.4533 20.3867 24.2267 22.9733 23 25.8C22.7867 26.28 22.6533 26.7067 22.6 27.08C22.5467 27.4533 22.52 27.8267 22.52 28.2C22.52 29.2667 22.7067 30.44 23.08 31.72C23.4533 33 23.9333 34.2533 24.52 35.48C25.16 36.7067 25.88 37.88 26.68 39C27.5333 40.12 28.4133 41.1067 29.32 41.96C30.3867 42.9733 31.5867 43.8267 32.92 44.52C34.3067 45.16 35.9333 45.48 37.8 45.48C37.9067 45.48 38.04 45.5067 38.2 45.56C38.36 45.6133 38.44 45.6933 38.44 45.8V54.6C38.44 54.8667 38.36 55 38.2 55C34.84 55 31.9867 54.7067 29.64 54.12C27.2933 53.5333 25.0267 52.3867 22.84 50.68C21.8267 49.88 20.8667 48.9733 19.96 47.96C19.1067 46.8933 18.2533 45.72 17.4 44.44C16.6 43.16 15.88 41.8267 15.24 40.44C14.6 39 14.04 37.5067 13.56 35.96C13.4533 35.5333 13.2933 35.24 13.08 35.08C12.8667 34.92 12.7333 34.84 12.68 34.84C12.36 34.84 12.0667 34.84 11.8 34.84C11.5867 34.84 11.3467 34.84 11.08 34.84C11.08 34.84 11.0267 34.8667 10.92 34.92C10.8133 34.9733 10.76 35.1333 10.76 35.4C10.76 37.48 10.76 39.2667 10.76 40.76C10.76 42.2533 10.76 43.6933 10.76 45.08C10.76 46.4133 10.76 47.8267 10.76 49.32C10.76 50.8133 10.76 52.6 10.76 54.68C10.76 54.8933 10.6533 55 10.44 55C10.28 55 9.72 55 8.76 55C7.8 55 6.70667 55 5.48 55C4.25333 55 3.16 55 2.2 55C1.24 55 0.68 55 0.52 55ZM41.7713 55C41.0779 55 40.7313 54.68 40.7313 54.04V2.2C40.7313 1.50666 41.0779 1.16 41.7713 1.16H68.4913C69.1313 1.16 69.5046 1.21333 69.6113 1.32C69.7179 1.42666 69.7713 1.77333 69.7713 2.36V7.96C69.7713 8.6 69.6913 9 69.5313 9.16C69.3713 9.26666 69.0246 9.32 68.4913 9.32H52.0113C51.6379 9.32 51.4246 9.34666 51.3713 9.4C51.3179 9.45333 51.2913 9.64 51.2913 9.96V23.16C51.2913 23.48 51.3179 23.6933 51.3713 23.8C51.4779 23.8533 51.6646 23.88 51.9313 23.88H64.8913C65.5846 23.88 65.9846 23.96 66.0913 24.12C66.1979 24.2267 66.2513 24.6533 66.2513 25.4V30.44C66.2513 31.1333 66.1713 31.56 66.0113 31.72C65.9046 31.8267 65.5313 31.88 64.8913 31.88H51.9313C51.6646 31.88 51.4779 31.9067 51.3713 31.96C51.3179 32.0133 51.2913 32.1733 51.2913 32.44V46.12C51.2913 46.44 51.3179 46.6533 51.3713 46.76C51.4246 46.8133 51.6113 46.84 51.9313 46.84H68.3313C69.0779 46.84 69.5046 46.92 69.6113 47.08C69.7179 47.24 69.7713 47.6667 69.7713 48.36V53.48C69.7713 54.2267 69.6913 54.68 69.5313 54.84C69.3713 54.9467 68.9446 55 68.2513 55H41.7713ZM74.1775 55C73.4842 55 73.1375 54.68 73.1375 54.04V2.2C73.1375 1.50666 73.4842 1.16 74.1775 1.16H100.898C101.538 1.16 101.911 1.21333 102.018 1.32C102.124 1.42666 102.178 1.77333 102.178 2.36V7.96C102.178 8.6 102.098 9 101.938 9.16C101.778 9.26666 101.431 9.32 100.898 9.32H84.4175C84.0442 9.32 83.8308 9.34666 83.7775 9.4C83.7242 9.45333 83.6975 9.64 83.6975 9.96V23.16C83.6975 23.48 83.7242 23.6933 83.7775 23.8C83.8842 23.8533 84.0708 23.88 84.3375 23.88H97.2975C97.9908 23.88 98.3908 23.96 98.4975 24.12C98.6042 24.2267 98.6575 24.6533 98.6575 25.4V30.44C98.6575 31.1333 98.5775 31.56 98.4175 31.72C98.3108 31.8267 97.9375 31.88 97.2975 31.88H84.3375C84.0708 31.88 83.8842 31.9067 83.7775 31.96C83.7242 32.0133 83.6975 32.1733 83.6975 32.44V46.12C83.6975 46.44 83.7242 46.6533 83.7775 46.76C83.8308 46.8133 84.0175 46.84 84.3375 46.84H100.738C101.484 46.84 101.911 46.92 102.018 47.08C102.124 47.24 102.178 47.6667 102.178 48.36V53.48C102.178 54.2267 102.098 54.68 101.938 54.84C101.778 54.9467 101.351 55 100.658 55H74.1775ZM137.784 18.6C137.784 22.0133 137.144 25.16 135.864 28.04C134.637 30.92 132.797 33.24 130.344 35C127.89 36.7067 124.797 37.56 121.064 37.56H116.744C116.53 37.56 116.37 37.64 116.264 37.8C116.157 37.9067 116.104 38.0667 116.104 38.28V54.04C116.104 54.68 115.73 55 114.984 55H106.584C105.89 55 105.544 54.68 105.544 54.04V2.2C105.544 1.50666 105.89 1.16 106.584 1.16H120.184C126.424 1.16 130.904 2.6 133.624 5.48C136.397 8.30666 137.784 12.68 137.784 18.6ZM116.104 29.16C116.104 29.64 116.317 29.88 116.744 29.88H120.024C122.37 29.88 124.21 28.8933 125.544 26.92C126.877 24.9467 127.544 22.2 127.544 18.68C127.49 14.9467 126.797 12.3333 125.464 10.84C124.13 9.29333 122.264 8.52 119.864 8.52H116.744C116.477 8.52 116.29 8.54666 116.184 8.6C116.13 8.65333 116.104 8.86666 116.104 9.24V29.16ZM154.309 52.04V45.48C154.309 45.1067 154.415 44.92 154.629 44.92C154.895 44.92 155.322 45.0267 155.909 45.24C156.975 45.56 158.229 45.88 159.669 46.2C161.109 46.4667 162.522 46.68 163.909 46.84C165.295 47 166.415 47.08 167.269 47.08C170.042 47.08 172.149 46.3067 173.589 44.76C175.082 43.2133 175.829 41.4267 175.829 39.4C175.829 37.32 175.082 35.64 173.589 34.36C172.149 33.08 170.202 32.0933 167.749 31.4C166.415 31.08 164.895 30.6267 163.189 30.04C161.535 29.4533 159.909 28.6267 158.309 27.56C156.762 26.4933 155.482 25.0267 154.469 23.16C153.455 21.24 152.949 18.8133 152.949 15.88C152.949 12.2533 153.775 9.34666 155.429 7.16C157.135 4.97333 159.322 3.37333 161.989 2.36C164.709 1.29333 167.589 0.759997 170.629 0.759997C171.802 0.759997 173.082 0.893331 174.469 1.16C175.909 1.37333 177.322 1.66666 178.709 2.04C180.095 2.41333 181.322 2.84 182.389 3.32C182.815 3.42666 183.082 3.58666 183.189 3.8C183.295 3.96 183.349 4.2 183.349 4.52V10.52C183.349 11.96 182.469 12.2 180.709 11.24C179.589 10.6 178.229 10.04 176.629 9.56C175.082 9.02667 173.349 8.76 171.429 8.76C169.082 8.76 167.189 9.37333 165.749 10.6C164.309 11.8267 163.589 13.2933 163.589 15C163.589 16.6533 164.042 17.9867 164.949 19C165.855 20.0133 167.029 20.8133 168.469 21.4C169.909 21.9867 171.402 22.4667 172.949 22.84C174.495 23.2133 175.909 23.64 177.189 24.12C179.322 24.8133 181.082 25.7467 182.469 26.92C183.909 28.04 185.002 29.5333 185.749 31.4C186.495 33.2667 186.869 35.64 186.869 38.52C186.869 42.4133 186.015 45.64 184.309 48.2C182.655 50.7067 180.362 52.5733 177.429 53.8C174.495 55.0267 171.162 55.64 167.429 55.64C165.775 55.64 163.909 55.48 161.829 55.16C159.749 54.84 157.855 54.3867 156.149 53.8C155.455 53.5867 154.975 53.3733 154.709 53.16C154.442 52.8933 154.309 52.52 154.309 52.04ZM187.855 55C187.428 55 187.162 54.8133 187.055 54.44C186.948 54.0667 186.975 53.3467 187.135 52.28C187.508 49.88 188.068 47 188.815 43.64C189.562 40.2267 190.442 36.6267 191.455 32.84C192.468 29.0533 193.535 25.2667 194.655 21.48C195.828 17.6933 197.028 14.1733 198.255 10.92C199.482 7.61333 200.655 4.86666 201.775 2.68C202.095 2.2 202.362 1.82666 202.575 1.56C202.842 1.29333 203.162 1.16 203.535 1.16H211.135C211.562 1.32 211.908 1.50667 212.175 1.72C212.442 1.88 212.708 2.2 212.975 2.68C214.095 4.86666 215.268 7.61333 216.495 10.92C217.722 14.1733 218.922 17.6933 220.095 21.48C221.268 25.2667 222.362 29.08 223.375 32.92C224.388 36.7067 225.268 40.3067 226.015 43.72C226.762 47.08 227.295 49.9333 227.615 52.28C227.828 53.3467 227.882 54.0667 227.775 54.44C227.668 54.8133 227.375 55 226.895 55H218.655C218.228 55 217.935 54.8933 217.775 54.68C217.615 54.4133 217.428 53.7733 217.215 52.76C217.002 51.5333 216.708 50.0933 216.335 48.44C216.015 46.7333 215.722 45.24 215.455 43.96C215.402 43.5867 215.322 43.3733 215.215 43.32C215.108 43.2133 214.868 43.16 214.495 43.16H200.255C199.882 43.2133 199.668 43.2667 199.615 43.32C199.562 43.3733 199.482 43.6133 199.375 44.04C199.108 45.2667 198.788 46.7333 198.415 48.44C198.095 50.0933 197.802 51.56 197.535 52.84C197.375 53.8 197.215 54.4133 197.055 54.68C196.895 54.8933 196.602 55 196.175 55H187.855ZM202.495 35.08H212.255C212.628 35.08 212.842 35.0267 212.895 34.92C213.002 34.76 213.002 34.4933 212.895 34.12C212.202 31.4 211.455 28.5733 210.655 25.64C209.855 22.6533 209.028 19.96 208.175 17.56C208.068 17.08 207.882 16.84 207.615 16.84H207.055C206.842 16.84 206.655 17.08 206.495 17.56C206.068 18.9467 205.562 20.5733 204.975 22.44C204.442 24.3067 203.908 26.2533 203.375 28.28C202.842 30.3067 202.335 32.28 201.855 34.2C201.802 34.52 201.802 34.76 201.855 34.92C201.908 35.0267 202.122 35.08 202.495 35.08ZM231.599 55C230.906 55 230.559 54.68 230.559 54.04V2.2C230.559 1.50666 230.906 1.16 231.599 1.16H258.319C258.959 1.16 259.333 1.21333 259.439 1.32C259.546 1.42666 259.599 1.77333 259.599 2.36V7.96C259.599 8.6 259.519 9 259.359 9.16C259.199 9.26666 258.853 9.32 258.319 9.32H241.839C241.466 9.32 241.253 9.34666 241.199 9.4C241.146 9.45333 241.119 9.64 241.119 9.96V23.16C241.119 23.48 241.146 23.6933 241.199 23.8C241.306 23.8533 241.493 23.88 241.759 23.88H254.559C255.253 23.88 255.653 23.96 255.759 24.12C255.866 24.2267 255.919 24.6533 255.919 25.4V30.44C255.919 31.1333 255.839 31.56 255.679 31.72C255.573 31.8267 255.199 31.88 254.559 31.88H241.759C241.493 31.88 241.306 31.9067 241.199 31.96C241.146 32.0133 241.119 32.1733 241.119 32.44V53.48C241.119 54.2267 241.039 54.68 240.879 54.84C240.773 54.9467 240.346 55 239.599 55H231.599ZM263.224 55C262.531 55 262.184 54.68 262.184 54.04V2.2C262.184 1.50666 262.531 1.16 263.224 1.16H289.944C290.584 1.16 290.958 1.21333 291.064 1.32C291.171 1.42666 291.224 1.77333 291.224 2.36V7.96C291.224 8.6 291.144 9 290.984 9.16C290.824 9.26666 290.478 9.32 289.944 9.32H273.464C273.091 9.32 272.878 9.34666 272.824 9.4C272.771 9.45333 272.744 9.64 272.744 9.96V23.16C272.744 23.48 272.771 23.6933 272.824 23.8C272.931 23.8533 273.118 23.88 273.384 23.88H286.344C287.038 23.88 287.438 23.96 287.544 24.12C287.651 24.2267 287.704 24.6533 287.704 25.4V30.44C287.704 31.1333 287.624 31.56 287.464 31.72C287.358 31.8267 286.984 31.88 286.344 31.88H273.384C273.118 31.88 272.931 31.9067 272.824 31.96C272.771 32.0133 272.744 32.1733 272.744 32.44V46.12C272.744 46.44 272.771 46.6533 272.824 46.76C272.878 46.8133 273.064 46.84 273.384 46.84H289.784C290.531 46.84 290.958 46.92 291.064 47.08C291.171 47.24 291.224 47.6667 291.224 48.36V53.48C291.224 54.2267 291.144 54.68 290.984 54.84C290.824 54.9467 290.398 55 289.704 55H263.224Z" fill="white"/>
</svg>
